<?xml version="1.0" encoding="UTF-8"?>
<!DOCTYPE svg PUBLIC "-//W3C//DTD SVG 1.1//EN" "http://www.w3.org/Graphics/SVG/1.1/DTD/svg11.dtd">
<svg xmlns="http://www.w3.org/2000/svg" version="1.1" width="128px" height="128px" style="shape-rendering:geometricPrecision; text-rendering:geometricPrecision; image-rendering:optimizeQuality; fill-rule:evenodd; clip-rule:evenodd" xmlns:xlink="http://www.w3.org/1999/xlink">
<g><path style="opacity:0.999" fill="#549ad3" d="M 9.5,-0.5 C 47.8333,-0.5 86.1667,-0.5 124.5,-0.5C 124.321,9.83003 122.654,19.83 119.5,29.5C 119.5,23.8333 119.5,18.1667 119.5,12.5C 119.141,10.629 118.141,9.12901 116.5,8C 83.8333,7.33333 51.1667,7.33333 18.5,8C 17.6667,8.83333 16.8333,9.66667 16,10.5C 15.5001,26.8299 15.3334,43.1633 15.5,59.5C 13.7028,58.2702 11.7028,57.6036 9.5,57.5C 8.88258,57.6107 8.38258,57.944 8,58.5C 7.50204,55.5184 7.33537,52.5184 7.5,49.5C 7.33341,33.4965 7.50007,17.4965 8,1.5C 8.71719,0.955796 9.21719,0.28913 9.5,-0.5 Z"/></g>
<g><path style="opacity:1" fill="#3588cb" d="M 124.5,-0.5 C 124.833,-0.5 125.167,-0.5 125.5,-0.5C 125.833,0.5 126.5,1.16667 127.5,1.5C 127.5,29.5 127.5,57.5 127.5,85.5C 126.711,85.7828 126.044,86.2828 125.5,87C 119.509,87.4995 113.509,87.6662 107.5,87.5C 108.774,85.0075 109.44,82.3408 109.5,79.5C 113.287,80.1856 116.454,79.1856 119,76.5C 119.5,61.8371 119.667,47.1705 119.5,32.5C 119.5,31.5 119.5,30.5 119.5,29.5C 122.654,19.83 124.321,9.83003 124.5,-0.5 Z"/></g>
<g><path style="opacity:1" fill="#c4dcf0" d="M 119.5,12.5 C 96.8803,10.9382 74.8803,13.7715 53.5,21C 34.5764,29.05 22.2431,42.8834 16.5,62.5C 15.8902,61.609 15.5569,60.609 15.5,59.5C 15.3334,43.1633 15.5001,26.8299 16,10.5C 16.8333,9.66667 17.6667,8.83333 18.5,8C 51.1667,7.33333 83.8333,7.33333 116.5,8C 118.141,9.12901 119.141,10.629 119.5,12.5 Z"/></g>
<g><path style="opacity:1" fill="#e3eef7" d="M 119.5,12.5 C 119.5,18.1667 119.5,23.8333 119.5,29.5C 119.5,30.5 119.5,31.5 119.5,32.5C 118.12,35.7735 116.62,39.1068 115,42.5C 110.815,48.2257 106.648,53.8924 102.5,59.5C 102.167,59.5 101.833,59.5 101.5,59.5C 94.0066,51.6095 85.0066,49.4428 74.5,53C 71.1381,54.3426 68.1381,56.176 65.5,58.5C 65.5,48.1667 65.5,37.8333 65.5,27.5C 61.5,27.5 57.5,27.5 53.5,27.5C 53.5,31.5 53.5,35.5 53.5,39.5C 51.5,39.5 49.5,39.5 47.5,39.5C 45.5,39.5 43.5,39.5 41.5,39.5C 41.5,42.1667 41.5,44.8333 41.5,47.5C 39.5,47.5 37.5,47.5 35.5,47.5C 33.5,47.5 31.5,47.5 29.5,47.5C 29.5,52.8333 29.5,58.1667 29.5,63.5C 31.5,63.5 33.5,63.5 35.5,63.5C 37.5,63.5 39.5,63.5 41.5,63.5C 43.5,63.5 45.5,63.5 47.5,63.5C 49.5,63.5 51.5,63.5 53.5,63.5C 56.1667,63.5 58.8333,63.5 61.5,63.5C 58.3312,68.346 56.9979,73.6794 57.5,79.5C 45.1667,79.5 32.8333,79.5 20.5,79.5C 19.5416,79.0472 18.7083,78.3805 18,77.5C 17.7814,72.4176 17.2814,67.4176 16.5,62.5C 22.2431,42.8834 34.5764,29.05 53.5,21C 74.8803,13.7715 96.8803,10.9382 119.5,12.5 Z"/></g>
<g><path style="opacity:1" fill="#4b93d0" d="M 65.5,58.5 C 64.1667,60.1667 62.8333,61.8333 61.5,63.5C 58.8333,63.5 56.1667,63.5 53.5,63.5C 53.5,55.5 53.5,47.5 53.5,39.5C 53.5,35.5 53.5,31.5 53.5,27.5C 57.5,27.5 61.5,27.5 65.5,27.5C 65.5,37.8333 65.5,48.1667 65.5,58.5 Z"/></g>
<g><path style="opacity:1" fill="#559ad4" d="M 74.5,27.5 C 79.8437,27.334 85.1771,27.5006 90.5,28C 91.8333,29 91.8333,30 90.5,31C 85.1667,31.6667 79.8333,31.6667 74.5,31C 73.3157,29.8545 73.3157,28.6879 74.5,27.5 Z"/></g>
<g><path style="opacity:1" fill="#c4dbef" d="M 119.5,32.5 C 119.667,47.1705 119.5,61.8371 119,76.5C 116.454,79.1856 113.287,80.1856 109.5,79.5C 109.94,71.8196 107.607,65.1529 102.5,59.5C 106.648,53.8924 110.815,48.2257 115,42.5C 116.62,39.1068 118.12,35.7735 119.5,32.5 Z"/></g>
<g><path style="opacity:1" fill="#b4d307" d="M 74.5,35.5 C 84.5056,35.3335 94.5056,35.5002 104.5,36C 105.833,37 105.833,38 104.5,39C 94.5,39.6667 84.5,39.6667 74.5,39C 73.3157,37.8545 73.3157,36.6879 74.5,35.5 Z"/></g>
<g><path style="opacity:1" fill="#b3d304" d="M 47.5,39.5 C 47.5,47.5 47.5,55.5 47.5,63.5C 45.5,63.5 43.5,63.5 41.5,63.5C 41.5,58.1667 41.5,52.8333 41.5,47.5C 41.5,44.8333 41.5,42.1667 41.5,39.5C 43.5,39.5 45.5,39.5 47.5,39.5 Z"/></g>
<g><path style="opacity:1" fill="#93ac03" d="M 47.5,39.5 C 49.5,39.5 51.5,39.5 53.5,39.5C 53.5,47.5 53.5,55.5 53.5,63.5C 51.5,63.5 49.5,63.5 47.5,63.5C 47.5,55.5 47.5,47.5 47.5,39.5 Z"/></g>
<g><path style="opacity:1" fill="#fe5252" d="M 74.5,43.5 C 84.5056,43.3335 94.5056,43.5002 104.5,44C 105.833,45 105.833,46 104.5,47C 94.5,47.6667 84.5,47.6667 74.5,47C 73.3157,45.8545 73.3157,44.6879 74.5,43.5 Z"/></g>
<g><path style="opacity:1" fill="#fe5150" d="M 35.5,47.5 C 35.5,52.8333 35.5,58.1667 35.5,63.5C 33.5,63.5 31.5,63.5 29.5,63.5C 29.5,58.1667 29.5,52.8333 29.5,47.5C 31.5,47.5 33.5,47.5 35.5,47.5 Z"/></g>
<g><path style="opacity:1" fill="#fe2928" d="M 35.5,47.5 C 37.5,47.5 39.5,47.5 41.5,47.5C 41.5,52.8333 41.5,58.1667 41.5,63.5C 39.5,63.5 37.5,63.5 35.5,63.5C 35.5,58.1667 35.5,52.8333 35.5,47.5 Z"/></g>
<g><path style="opacity:0.978" fill="#fec59f" d="M 7.5,49.5 C 7.33537,52.5184 7.50204,55.5184 8,58.5C 8.38258,57.944 8.88258,57.6107 9.5,57.5C 10.412,59.5952 11.5787,61.5952 13,63.5C 13.3333,68.1667 13.6667,72.8333 14,77.5C 17.692,81.5472 20.3587,86.2138 22,91.5C 23.7058,90.6921 24.5391,89.3588 24.5,87.5C 27.1667,87.5 29.8333,87.5 32.5,87.5C 31.0401,89.4628 29.3734,91.2962 27.5,93C 20.3981,96.7506 13.0648,99.5839 5.5,101.5C 5.16667,101.5 4.83333,101.5 4.5,101.5C 4.44118,94.3434 2.77452,87.6768 -0.5,81.5C -0.5,72.8333 -0.5,64.1667 -0.5,55.5C 1.29114,52.3808 3.9578,50.3808 7.5,49.5 Z"/></g>
<g><path style="opacity:0.997" fill="#fe5353" d="M 101.5,59.5 C 107.963,73.0181 105.63,84.8515 94.5,95C 84.0315,100.953 73.6982,100.786 63.5,94.5C 61.3311,92.6597 59.9977,90.3263 59.5,87.5C 58.6295,84.8877 57.9628,82.221 57.5,79.5C 56.9979,73.6794 58.3312,68.346 61.5,63.5C 62.8333,61.8333 64.1667,60.1667 65.5,58.5C 68.1381,56.176 71.1381,54.3426 74.5,53C 85.0066,49.4428 94.0066,51.6095 101.5,59.5 Z"/></g>
<g><path style="opacity:1" fill="#fdb07d" d="M 9.5,57.5 C 11.7028,57.6036 13.7028,58.2702 15.5,59.5C 15.5569,60.609 15.8902,61.609 16.5,62.5C 17.2814,67.4176 17.7814,72.4176 18,77.5C 18.7083,78.3805 19.5416,79.0472 20.5,79.5C 22.3795,81.9256 23.7128,84.5923 24.5,87.5C 24.5391,89.3588 23.7058,90.6921 22,91.5C 20.3587,86.2138 17.692,81.5472 14,77.5C 13.6667,72.8333 13.3333,68.1667 13,63.5C 11.5787,61.5952 10.412,59.5952 9.5,57.5 Z"/></g>
<g><path style="opacity:1" fill="#c8d9eb" d="M 96.5,65.5 C 78.3553,60.8149 69.5219,67.8149 70,86.5C 70.7914,87.745 71.2914,89.0783 71.5,90.5C 65.9836,85.7758 64.1503,79.7758 66,72.5C 70.835,60.77 79.335,56.9367 91.5,61C 93.6605,61.9959 95.3272,63.4959 96.5,65.5 Z"/></g>
<g><path style="opacity:1" fill="#e4edf6" d="M 96.5,65.5 C 102.547,72.6699 103.047,80.3366 98,88.5C 92.6859,94.1224 86.1859,96.2891 78.5,95C 75.7613,93.9741 73.428,92.4741 71.5,90.5C 71.2914,89.0783 70.7914,87.745 70,86.5C 69.5219,67.8149 78.3553,60.8149 96.5,65.5 Z"/></g>
<g><path style="opacity:1" fill="#fe2e2d" d="M 101.5,59.5 C 101.833,59.5 102.167,59.5 102.5,59.5C 107.607,65.1529 109.94,71.8196 109.5,79.5C 109.44,82.3408 108.774,85.0075 107.5,87.5C 107.346,89.9699 106.346,91.9699 104.5,93.5C 101.833,95.5 99.5,97.8333 97.5,100.5C 88.5975,104.277 79.5975,104.444 70.5,101C 67.6688,99.3343 65.3355,97.1676 63.5,94.5C 73.6982,100.786 84.0315,100.953 94.5,95C 105.63,84.8515 107.963,73.0181 101.5,59.5 Z"/></g>
<g><path style="opacity:1" fill="#4e95d1" d="M 20.5,79.5 C 32.8333,79.5 45.1667,79.5 57.5,79.5C 57.9628,82.221 58.6295,84.8877 59.5,87.5C 52.1667,87.5 44.8333,87.5 37.5,87.5C 35.8333,87.5 34.1667,87.5 32.5,87.5C 29.8333,87.5 27.1667,87.5 24.5,87.5C 23.7128,84.5923 22.3795,81.9256 20.5,79.5 Z"/></g>
<g><path style="opacity:1" fill="#ffb07b" d="M 32.5,87.5 C 34.1667,87.5 35.8333,87.5 37.5,87.5C 37.8023,92.93 36.1357,97.5967 32.5,101.5C 23.5,101.5 14.5,101.5 5.5,101.5C 13.0648,99.5839 20.3981,96.7506 27.5,93C 29.3734,91.2962 31.0401,89.4628 32.5,87.5 Z"/></g>
<g><path style="opacity:0.999" fill="#c8dcef" d="M 104.5,93.5 C 111.137,99.9672 117.97,106.3 125,112.5C 126.995,120.67 123.829,124.336 115.5,123.5C 118.651,120.864 119.818,117.531 119,113.5C 114.468,108.633 109.634,104.133 104.5,100C 102.494,100.15 100.494,100.65 98.5,101.5C 97.8333,101.5 97.5,101.167 97.5,100.5C 99.5,97.8333 101.833,95.5 104.5,93.5 Z"/></g>
<g><path style="opacity:0.957" fill="#e3eef8" d="M 115.5,123.5 C 113.537,122.04 111.704,120.373 110,118.5C 106.147,112.776 102.313,107.109 98.5,101.5C 100.494,100.65 102.494,100.15 104.5,100C 109.634,104.133 114.468,108.633 119,113.5C 119.818,117.531 118.651,120.864 115.5,123.5 Z"/></g>
<g><path style="opacity:1" fill="#d0e3f3" d="M 4.5,101.5 C 4.83333,101.5 5.16667,101.5 5.5,101.5C 14.5,101.5 23.5,101.5 32.5,101.5C 33.5,101.5 34.5,101.5 35.5,101.5C 35.5,103.5 35.5,105.5 35.5,107.5C 34.5,107.5 33.5,107.5 32.5,107.5C 22.8333,107.5 13.1667,107.5 3.5,107.5C 3.20528,105.265 3.53862,103.265 4.5,101.5 Z"/></g>
<g><path style="opacity:1" fill="#37658b" d="M 3.5,107.5 C 13.1667,107.5 22.8333,107.5 32.5,107.5C 32.1412,109.371 31.1412,110.871 29.5,112C 21.1092,117.964 11.7759,121.464 1.5,122.5C 0.891664,117.056 1.55833,112.056 3.5,107.5 Z"/></g>
<g><path style="opacity:1" fill="#2c5170" d="M 32.5,107.5 C 33.5,107.5 34.5,107.5 35.5,107.5C 37.4589,113.75 38.1255,120.416 37.5,127.5C 25.5,127.5 13.5,127.5 1.5,127.5C 1.5,125.833 1.5,124.167 1.5,122.5C 11.7759,121.464 21.1092,117.964 29.5,112C 31.1412,110.871 32.1412,109.371 32.5,107.5 Z"/></g>
</svg>
