<?xml version="1.0" encoding="UTF-8"?>
<!DOCTYPE svg PUBLIC "-//W3C//DTD SVG 1.1//EN" "http://www.w3.org/Graphics/SVG/1.1/DTD/svg11.dtd">
<svg xmlns="http://www.w3.org/2000/svg" version="1.1" width="512px" height="512px" style="shape-rendering:geometricPrecision; text-rendering:geometricPrecision; image-rendering:optimizeQuality; fill-rule:evenodd; clip-rule:evenodd" xmlns:xlink="http://www.w3.org/1999/xlink">
<g><path style="opacity:0.983" fill="#ff4db3" d="M 93.5,95.5 C 93.5,95.8333 93.5,96.1667 93.5,96.5C 83.5824,95.5259 73.5824,95.1926 63.5,95.5C 63.5,106.167 63.5,116.833 63.5,127.5C 73.5824,127.807 83.5824,127.474 93.5,126.5C 93.5,126.833 93.5,127.167 93.5,127.5C 80.0636,156.271 58.0636,165.771 27.5,156C 12.739,148.755 3.40563,137.255 -0.5,121.5C -0.5,114.833 -0.5,108.167 -0.5,101.5C 8.4016,73.199 27.7349,60.699 57.5,64C 74.9563,68.2911 86.9563,78.7911 93.5,95.5 Z"/></g>
<g><path style="opacity:0.982" fill="#ff4db3" d="M 511.5,101.5 C 511.5,108.167 511.5,114.833 511.5,121.5C 502.598,149.801 483.265,162.301 453.5,159C 436.044,154.709 424.044,144.209 417.5,127.5C 417.5,127.167 417.5,126.833 417.5,126.5C 427.418,127.474 437.418,127.807 447.5,127.5C 447.5,116.833 447.5,106.167 447.5,95.5C 437.418,95.1926 427.418,95.5259 417.5,96.5C 417.5,96.1667 417.5,95.8333 417.5,95.5C 430.936,66.7287 452.936,57.2287 483.5,67C 498.261,74.2455 507.594,85.7455 511.5,101.5 Z"/></g>
<g><path style="opacity:1" fill="#ff0068" d="M 93.5,96.5 C 96.0858,106.48 96.0858,116.48 93.5,126.5C 83.5824,127.474 73.5824,127.807 63.5,127.5C 63.5,116.833 63.5,106.167 63.5,95.5C 73.5824,95.1926 83.5824,95.5259 93.5,96.5 Z"/></g>
<g><path style="opacity:0.978" fill="#ff8de3" d="M 93.5,95.5 C 153.247,89.2481 204.747,106.581 248,147.5C 255.022,155.688 261.856,164.021 268.5,172.5C 305.091,121.99 354.757,96.3229 417.5,95.5C 417.5,95.8333 417.5,96.1667 417.5,96.5C 414.914,106.48 414.914,116.48 417.5,126.5C 417.5,126.833 417.5,127.167 417.5,127.5C 362.518,129.31 320.518,153.31 291.5,199.5C 314.515,221.17 341.848,234.003 373.5,238C 388.146,239.118 402.813,239.618 417.5,239.5C 417.5,239.833 417.5,240.167 417.5,240.5C 414.914,250.48 414.914,260.48 417.5,270.5C 417.5,270.833 417.5,271.167 417.5,271.5C 365.402,277.123 318.736,264.123 277.5,232.5C 275.308,237.954 273.808,243.62 273,249.5C 271.398,268.742 266.898,287.242 259.5,305C 296.07,362.784 348.736,388.951 417.5,383.5C 417.5,383.833 417.5,384.167 417.5,384.5C 414.914,394.48 414.914,404.48 417.5,414.5C 417.5,414.833 417.5,415.167 417.5,415.5C 344.411,422.099 286.078,396.432 242.5,338.5C 242.389,337.883 242.056,337.383 241.5,337C 242.416,336.722 243.082,336.222 243.5,335.5C 249.404,326.192 254.404,316.359 258.5,306C 255.396,301.225 251.896,296.725 248,292.5C 243.331,288.663 238.831,284.663 234.5,280.5C 234.167,279.833 233.833,279.167 233.5,278.5C 235.44,273.08 236.94,267.414 238,261.5C 239.602,242.258 244.102,223.758 251.5,206C 214.93,148.216 162.264,122.049 93.5,127.5C 93.5,127.167 93.5,126.833 93.5,126.5C 96.0858,116.48 96.0858,106.48 93.5,96.5C 93.5,96.1667 93.5,95.8333 93.5,95.5 Z"/></g>
<g><path style="opacity:1" fill="#ff0068" d="M 417.5,126.5 C 414.914,116.48 414.914,106.48 417.5,96.5C 427.418,95.5259 437.418,95.1926 447.5,95.5C 447.5,106.167 447.5,116.833 447.5,127.5C 437.418,127.807 427.418,127.474 417.5,126.5 Z"/></g>
<g><path style="opacity:1" fill="#ff4eb3" d="M 267.5,174.5 C 274.548,183.326 282.214,191.826 290.5,200C 284.897,209.708 280.231,219.874 276.5,230.5C 272.149,226.314 267.649,222.314 263,218.5C 260.37,214.868 257.37,211.535 254,208.5C 253.219,207.271 252.719,205.938 252.5,204.5C 256.997,194.173 261.997,184.173 267.5,174.5 Z"/></g>
<g><path style="opacity:0.983" fill="#ff4db3" d="M 93.5,239.5 C 93.5,239.833 93.5,240.167 93.5,240.5C 83.5824,239.526 73.5824,239.193 63.5,239.5C 63.5,250.167 63.5,260.833 63.5,271.5C 73.5824,271.807 83.5824,271.474 93.5,270.5C 93.5,270.833 93.5,271.167 93.5,271.5C 80.0636,300.271 58.0636,309.771 27.5,300C 12.739,292.755 3.40563,281.255 -0.5,265.5C -0.5,258.833 -0.5,252.167 -0.5,245.5C 8.4016,217.199 27.7349,204.699 57.5,208C 74.9563,212.291 86.9563,222.791 93.5,239.5 Z"/></g>
<g><path style="opacity:0.982" fill="#ff4db3" d="M 511.5,245.5 C 511.5,252.167 511.5,258.833 511.5,265.5C 502.598,293.801 483.265,306.301 453.5,303C 436.044,298.709 424.044,288.209 417.5,271.5C 417.5,271.167 417.5,270.833 417.5,270.5C 427.418,271.474 437.418,271.807 447.5,271.5C 447.5,260.833 447.5,250.167 447.5,239.5C 437.418,239.193 427.418,239.526 417.5,240.5C 417.5,240.167 417.5,239.833 417.5,239.5C 430.936,210.729 452.936,201.229 483.5,211C 498.261,218.245 507.594,229.745 511.5,245.5 Z"/></g>
<g><path style="opacity:1" fill="#ff0068" d="M 93.5,240.5 C 96.0858,250.48 96.0858,260.48 93.5,270.5C 83.5824,271.474 73.5824,271.807 63.5,271.5C 63.5,260.833 63.5,250.167 63.5,239.5C 73.5824,239.193 83.5824,239.526 93.5,240.5 Z"/></g>
<g><path style="opacity:1" fill="#ff0068" d="M 417.5,270.5 C 414.914,260.48 414.914,250.48 417.5,240.5C 427.418,239.526 437.418,239.193 447.5,239.5C 447.5,250.167 447.5,260.833 447.5,271.5C 437.418,271.807 427.418,271.474 417.5,270.5 Z"/></g>
<g><path style="opacity:1" fill="#ff4eb3" d="M 234.5,280.5 C 238.831,284.663 243.331,288.663 248,292.5C 251.896,296.725 255.396,301.225 258.5,306C 254.404,316.359 249.404,326.192 243.5,335.5C 241.983,335.489 240.816,334.823 240,333.5C 234.621,325.114 228.121,317.614 220.5,311C 226.166,301.176 230.832,291.01 234.5,280.5 Z"/></g>
<g><path style="opacity:0.976" fill="#ff8ce3" d="M 93.5,239.5 C 145.626,233.888 192.293,246.888 233.5,278.5C 233.833,279.167 234.167,279.833 234.5,280.5C 230.832,291.01 226.166,301.176 220.5,311C 228.121,317.614 234.621,325.114 240,333.5C 240.816,334.823 241.983,335.489 243.5,335.5C 243.082,336.222 242.416,336.722 241.5,337C 242.056,337.383 242.389,337.883 242.5,338.5C 205.921,388.992 156.254,414.659 93.5,415.5C 93.5,415.167 93.5,414.833 93.5,414.5C 96.0858,404.48 96.0858,394.48 93.5,384.5C 93.5,384.167 93.5,383.833 93.5,383.5C 148.482,381.69 190.482,357.69 219.5,311.5C 196.485,289.83 169.152,276.997 137.5,273C 122.854,271.882 108.187,271.382 93.5,271.5C 93.5,271.167 93.5,270.833 93.5,270.5C 96.0858,260.48 96.0858,250.48 93.5,240.5C 93.5,240.167 93.5,239.833 93.5,239.5 Z"/></g>
<g><path style="opacity:0.983" fill="#ff4db3" d="M 93.5,383.5 C 93.5,383.833 93.5,384.167 93.5,384.5C 83.5824,383.526 73.5824,383.193 63.5,383.5C 63.5,394.167 63.5,404.833 63.5,415.5C 73.5824,415.807 83.5824,415.474 93.5,414.5C 93.5,414.833 93.5,415.167 93.5,415.5C 80.0636,444.271 58.0636,453.771 27.5,444C 12.739,436.755 3.40563,425.255 -0.5,409.5C -0.5,402.833 -0.5,396.167 -0.5,389.5C 8.4016,361.199 27.7349,348.699 57.5,352C 74.9563,356.291 86.9563,366.791 93.5,383.5 Z"/></g>
<g><path style="opacity:0.982" fill="#ff4db3" d="M 511.5,389.5 C 511.5,396.167 511.5,402.833 511.5,409.5C 502.598,437.801 483.265,450.301 453.5,447C 436.044,442.709 424.044,432.209 417.5,415.5C 417.5,415.167 417.5,414.833 417.5,414.5C 427.418,415.474 437.418,415.807 447.5,415.5C 447.5,404.833 447.5,394.167 447.5,383.5C 437.418,383.193 427.418,383.526 417.5,384.5C 417.5,384.167 417.5,383.833 417.5,383.5C 430.936,354.729 452.936,345.229 483.5,355C 498.261,362.245 507.594,373.745 511.5,389.5 Z"/></g>
<g><path style="opacity:1" fill="#ff0068" d="M 93.5,384.5 C 96.0858,394.48 96.0858,404.48 93.5,414.5C 83.5824,415.474 73.5824,415.807 63.5,415.5C 63.5,404.833 63.5,394.167 63.5,383.5C 73.5824,383.193 83.5824,383.526 93.5,384.5 Z"/></g>
<g><path style="opacity:1" fill="#ff0068" d="M 417.5,414.5 C 414.914,404.48 414.914,394.48 417.5,384.5C 427.418,383.526 437.418,383.193 447.5,383.5C 447.5,394.167 447.5,404.833 447.5,415.5C 437.418,415.807 427.418,415.474 417.5,414.5 Z"/></g>
</svg>
