<svg xmlns="http://www.w3.org/2000/svg" viewBox="0 0 24 30" fill="none" x="0px" y="0px"><path fill-rule="evenodd" clip-rule="evenodd" d="M5.5 21.5H18.5C18.7761 21.5 19 21.2761 19 21V5.75L15.75 2.5H5.5C5.22386 2.5 5 2.72386 5 3V21C5 21.2761 5.22386 21.5 5.5 21.5ZM15.75 2H5.5C4.94772 2 4.5 2.44772 4.5 3V21C4.5 21.5523 4.94772 22 5.5 22H18.5C19.0523 22 19.5 21.5523 19.5 21V5.75L15.75 2Z" fill="black"/><path fill-rule="evenodd" clip-rule="evenodd" d="M15.75 2V4.75C15.75 5.30228 16.1977 5.75 16.75 5.75H19.5L15.75 2ZM16.25 3.20711V4.75C16.25 5.02614 16.4739 5.25 16.75 5.25H18.2929L16.25 3.20711Z" fill="black"/><path fill-rule="evenodd" clip-rule="evenodd" d="M6.375 4.1875C6.375 4.01491 6.51491 3.875 6.6875 3.875H8.5625C8.73509 3.875 8.875 4.01491 8.875 4.1875C8.875 4.36009 8.73509 4.5 8.5625 4.5H6.6875C6.51491 4.5 6.375 4.36009 6.375 4.1875ZM6.375 5.4375C6.375 5.26491 6.51491 5.125 6.6875 5.125H9.8125C9.98509 5.125 10.125 5.26491 10.125 5.4375C10.125 5.61009 9.98509 5.75 9.8125 5.75H6.6875C6.51491 5.75 6.375 5.61009 6.375 5.4375ZM6.6875 6.375C6.51491 6.375 6.375 6.51491 6.375 6.6875C6.375 6.86009 6.51491 7 6.6875 7H9.8125C9.98509 7 10.125 6.86009 10.125 6.6875C10.125 6.51491 9.98509 6.375 9.8125 6.375H6.6875Z" fill="black"/><path d="M8.7334 18.5973C8.72485 18.7828 8.6748 18.947 8.58325 19.0898C8.4917 19.2314 8.36292 19.3413 8.1969 19.4194C8.0321 19.4976 7.84351 19.5366 7.6311 19.5366C7.28076 19.5366 7.00488 19.4225 6.80347 19.1942C6.60205 18.9659 6.50134 18.6437 6.50134 18.2274V18.0956C6.50134 17.8344 6.54651 17.6061 6.63684 17.4108C6.72839 17.2142 6.85962 17.0629 7.03052 16.9567C7.20142 16.8492 7.39917 16.7955 7.62378 16.7955C7.94727 16.7955 8.20728 16.881 8.40381 17.0519C8.60034 17.2216 8.71204 17.4559 8.73889 17.755H8.09802C8.09314 17.5927 8.05225 17.4761 7.97534 17.4053C7.89844 17.3345 7.78125 17.2991 7.62378 17.2991C7.46387 17.2991 7.34668 17.3589 7.27222 17.4785C7.19775 17.5981 7.15869 17.7892 7.15503 18.0516V18.2402C7.15503 18.5247 7.19043 18.7279 7.26123 18.85C7.33325 18.972 7.45654 19.0331 7.6311 19.0331C7.77881 19.0331 7.89172 18.9983 7.96985 18.9287C8.04797 18.8591 8.08948 18.7487 8.09436 18.5973H8.7334Z" fill="black"/><path d="M10.4125 18.7914C10.4125 18.6974 10.3789 18.6241 10.3118 18.5717C10.2458 18.5192 10.1293 18.4648 9.96204 18.4087C9.7948 18.3525 9.65808 18.2982 9.55188 18.2457C9.20642 18.076 9.03369 17.8429 9.03369 17.5463C9.03369 17.3986 9.07642 17.2686 9.16187 17.1562C9.24854 17.0427 9.37061 16.9548 9.52808 16.8926C9.68555 16.8291 9.86255 16.7974 10.0591 16.7974C10.2507 16.7974 10.4222 16.8315 10.5736 16.8999C10.7262 16.9683 10.8446 17.0659 10.9288 17.1929C11.0131 17.3186 11.0552 17.4626 11.0552 17.625H10.4143C10.4143 17.5164 10.3807 17.4321 10.3136 17.3723C10.2477 17.3125 10.158 17.2826 10.0444 17.2826C9.92969 17.2826 9.83875 17.3082 9.77161 17.3595C9.70569 17.4095 9.67273 17.4736 9.67273 17.5518C9.67273 17.6201 9.70935 17.6824 9.78259 17.7385C9.85583 17.7935 9.98462 17.8508 10.1689 17.9106C10.3533 17.9692 10.5046 18.0327 10.623 18.1011C10.9111 18.2671 11.0552 18.496 11.0552 18.7877C11.0552 19.0209 10.9673 19.204 10.7915 19.337C10.6157 19.4701 10.3746 19.5366 10.0682 19.5366C9.85217 19.5366 9.65625 19.4982 9.48047 19.4213C9.30591 19.3431 9.17407 19.2369 9.08496 19.1027C8.99707 18.9672 8.95312 18.8115 8.95312 18.6357H9.59766C9.59766 18.7786 9.63428 18.8842 9.70752 18.9525C9.78198 19.0197 9.90222 19.0532 10.0682 19.0532C10.1744 19.0532 10.2581 19.0306 10.3191 18.9855C10.3813 18.9391 10.4125 18.8744 10.4125 18.7914Z" fill="black"/><path d="M12.4193 18.7749L12.9503 16.834H13.6681L12.7709 19.5H12.0677L11.1779 16.834H11.8901L12.4193 18.7749Z" fill="black"/><text x="0" y="39" fill="#000000" font-size="5px" font-weight="bold" font-family="'Helvetica Neue', Helvetica, Arial-Unicode, Arial, Sans-serif">Created by Merahburam Studio</text><text x="0" y="44" fill="#000000" font-size="5px" font-weight="bold" font-family="'Helvetica Neue', Helvetica, Arial-Unicode, Arial, Sans-serif">from the Noun Project</text></svg>