<?xml version="1.0" encoding="UTF-8"?>
<!DOCTYPE svg PUBLIC "-//W3C//DTD SVG 1.1//EN" "http://www.w3.org/Graphics/SVG/1.1/DTD/svg11.dtd">
<svg xmlns="http://www.w3.org/2000/svg" version="1.1" width="128px" height="128px" style="shape-rendering:geometricPrecision; text-rendering:geometricPrecision; image-rendering:optimizeQuality; fill-rule:evenodd; clip-rule:evenodd" xmlns:xlink="http://www.w3.org/1999/xlink">
<g><path style="opacity:0.973" fill="#243079" d="M 15.5,-0.5 C 23.1667,-0.5 30.8333,-0.5 38.5,-0.5C 38.6347,1.5542 37.968,3.22086 36.5,4.5C 35.8614,5.09682 35.528,5.93015 35.5,7C 35.6842,8.37561 36.3509,9.20894 37.5,9.5C 38.2341,10.7079 38.5674,12.0413 38.5,13.5C 29.185,14.2324 19.8517,14.5657 10.5,14.5C 9.36942,8.38114 11.0361,3.38114 15.5,-0.5 Z"/></g>
<g><path style="opacity:0.991" fill="#314991" d="M 38.5,-0.5 C 61.5,-0.5 84.5,-0.5 107.5,-0.5C 108.688,0.363622 109.855,1.36362 111,2.5C 112.266,6.39514 112.766,10.3951 112.5,14.5C 88.4907,14.1669 64.4907,14.5003 40.5,15.5C 39.503,18.155 37.8363,20.155 35.5,21.5C 35.1667,21.5 34.8333,21.5 34.5,21.5C 26.5,21.5 18.5,21.5 10.5,21.5C 10.5,19.1667 10.5,16.8333 10.5,14.5C 19.8517,14.5657 29.185,14.2324 38.5,13.5C 38.5674,12.0413 38.2341,10.7079 37.5,9.5C 40.0838,8.9517 41.0838,7.28503 40.5,4.5C 39.1667,4.5 37.8333,4.5 36.5,4.5C 37.968,3.22086 38.6347,1.5542 38.5,-0.5 Z"/></g>
<g><path style="opacity:1" fill="#f54056" d="M 19.5,4.5 C 21.1667,4.5 22.8333,4.5 24.5,4.5C 25.1693,8.67593 23.6693,10.0093 20,8.5C 19.51,7.20677 19.3433,5.87344 19.5,4.5 Z"/></g>
<g><path style="opacity:1" fill="#f5d543" d="M 27.5,4.5 C 29.1667,4.5 30.8333,4.5 32.5,4.5C 33.1693,8.67593 31.6693,10.0093 28,8.5C 27.51,7.20677 27.3433,5.87344 27.5,4.5 Z"/></g>
<g><path style="opacity:1" fill="#81c467" d="M 36.5,4.5 C 37.8333,4.5 39.1667,4.5 40.5,4.5C 41.0838,7.28503 40.0838,8.9517 37.5,9.5C 36.3509,9.20894 35.6842,8.37561 35.5,7C 35.528,5.93015 35.8614,5.09682 36.5,4.5 Z"/></g>
<g><path style="opacity:1" fill="#4564aa" d="M 49.5,4.5 C 59.8333,4.5 70.1667,4.5 80.5,4.5C 80.5,5.83333 80.5,7.16667 80.5,8.5C 69.8333,8.5 59.1667,8.5 48.5,8.5C 48.4326,7.04125 48.7659,5.70792 49.5,4.5 Z"/></g>
<g><path style="opacity:0.994" fill="#bdcaf4" d="M 112.5,14.5 C 112.5,16.8333 112.5,19.1667 112.5,21.5C 86.8333,21.5 61.1667,21.5 35.5,21.5C 37.8363,20.155 39.503,18.155 40.5,15.5C 64.4907,14.5003 88.4907,14.1669 112.5,14.5 Z"/></g>
<g><path style="opacity:0.991" fill="#cfd8f9" d="M 10.5,21.5 C 18.5,21.5 26.5,21.5 34.5,21.5C 31.0033,31.179 33.0033,39.5123 40.5,46.5C 39.4955,47.6828 38.6622,49.0161 38,50.5C 37.5005,56.8246 37.3338,63.1579 37.5,69.5C 36.8333,69.5 36.1667,69.5 35.5,69.5C 36.6894,64.5549 35.0227,61.2216 30.5,59.5C 28.8129,59.7605 27.3129,60.4272 26,61.5C 25.5026,64.146 25.3359,66.8127 25.5,69.5C 22.306,69.1756 21.306,70.3422 22.5,73C 28.8246,73.4995 35.1579,73.6662 41.5,73.5C 39.6453,76.3728 39.312,79.3728 40.5,82.5C 36.1667,82.5 31.8333,82.5 27.5,82.5C 27.5,83.8333 27.5,85.1667 27.5,86.5C 32.1667,86.5 36.8333,86.5 41.5,86.5C 41.5,87.8333 41.5,89.1667 41.5,90.5C 51.8387,90.3335 62.172,90.5002 72.5,91C 73.8333,92 73.8333,93 72.5,94C 62.172,94.4998 51.8387,94.6665 41.5,94.5C 41.5,95.8333 41.5,97.1667 41.5,98.5C 51.8387,98.3335 62.172,98.5002 72.5,99C 73.8333,100 73.8333,101 72.5,102C 62.5056,102.5 52.5056,102.666 42.5,102.5C 42.5,103.5 42.5,104.5 42.5,105.5C 52.5056,105.334 62.5056,105.5 72.5,106C 73.8333,107.333 73.8333,108.667 72.5,110C 62.1667,110.333 51.8333,110.667 41.5,111C 39.1765,114.964 38.8432,119.13 40.5,123.5C 27.9401,119.215 17.9401,111.548 10.5,100.5C 11.8333,77.8333 11.8333,55.1667 10.5,32.5C 10.5,28.8333 10.5,25.1667 10.5,21.5 Z"/></g>
<g><path style="opacity:0.995" fill="#ddedfe" d="M 34.5,21.5 C 34.8333,21.5 35.1667,21.5 35.5,21.5C 61.1667,21.5 86.8333,21.5 112.5,21.5C 112.5,24.8333 112.5,28.1667 112.5,31.5C 105.649,27.743 98.3153,26.5764 90.5,28C 87.7187,28.5218 85.3854,29.6885 83.5,31.5C 72.3407,37.8179 67.5074,47.4846 69,60.5C 72.2717,73.6111 80.4383,81.2778 93.5,83.5C 93.5,85.8333 93.5,88.1667 93.5,90.5C 93.2172,91.2891 92.7172,91.9558 92,92.5C 91.3333,100.167 91.3333,107.833 92,115.5C 92.8518,116.571 93.6851,117.571 94.5,118.5C 88.0515,122.869 81.0515,125.869 73.5,127.5C 65.8333,127.5 58.1667,127.5 50.5,127.5C 47.0498,126.47 43.7165,125.137 40.5,123.5C 38.8432,119.13 39.1765,114.964 41.5,111C 51.8333,110.667 62.1667,110.333 72.5,110C 73.8333,108.667 73.8333,107.333 72.5,106C 62.5056,105.5 52.5056,105.334 42.5,105.5C 42.5,104.5 42.5,103.5 42.5,102.5C 52.5056,102.666 62.5056,102.5 72.5,102C 73.8333,101 73.8333,100 72.5,99C 62.172,98.5002 51.8387,98.3335 41.5,98.5C 41.5,97.1667 41.5,95.8333 41.5,94.5C 51.8387,94.6665 62.172,94.4998 72.5,94C 73.8333,93 73.8333,92 72.5,91C 62.172,90.5002 51.8387,90.3335 41.5,90.5C 41.5,89.1667 41.5,87.8333 41.5,86.5C 42.4972,86.5299 43.1639,86.0299 43.5,85C 43.2517,83.2509 42.2517,82.4176 40.5,82.5C 39.312,79.3728 39.6453,76.3728 41.5,73.5C 48.5079,73.6663 55.5079,73.4996 62.5,73C 63.8213,71.4555 63.4879,70.2888 61.5,69.5C 60.6679,59.8505 60.1679,50.1838 60,40.5C 57.4719,36.9154 54.4719,36.582 51,39.5C 50.5002,49.4944 50.3335,59.4944 50.5,69.5C 49.5,69.5 48.5,69.5 47.5,69.5C 47.6663,62.825 47.4996,56.1583 47,49.5C 45.5347,47.085 43.368,46.085 40.5,46.5C 33.0033,39.5123 31.0033,31.179 34.5,21.5 Z"/></g>
<g><path style="opacity:0.957" fill="#bac6f1" d="M 112.5,31.5 C 123.836,38.6237 128.336,48.957 126,62.5C 125.434,64.7226 124.6,66.7226 123.5,68.5C 120.542,73.1256 116.876,77.1256 112.5,80.5C 109.598,81.7837 106.598,82.7837 103.5,83.5C 102.766,82.2921 102.433,80.9587 102.5,79.5C 119.971,72.269 124.804,59.9356 117,42.5C 108.719,32.7211 98.552,30.0545 86.5,34.5C 84.5,34.5 83.5,33.5 83.5,31.5C 85.3854,29.6885 87.7187,28.5218 90.5,28C 98.3153,26.5764 105.649,27.743 112.5,31.5 Z"/></g>
<g><path style="opacity:1" fill="#a9b7ed" d="M 83.5,31.5 C 83.5,33.5 84.5,34.5 86.5,34.5C 86.5,34.8333 86.5,35.1667 86.5,35.5C 76.5622,40.748 72.3956,49.0814 74,60.5C 77.8516,73.1969 86.3516,79.5303 99.5,79.5C 100.5,79.5 101.5,79.5 102.5,79.5C 102.433,80.9587 102.766,82.2921 103.5,83.5C 101.656,85.2789 100.99,87.6122 101.5,90.5C 98.8333,89.1667 96.1667,89.1667 93.5,90.5C 93.5,88.1667 93.5,85.8333 93.5,83.5C 80.4383,81.2778 72.2717,73.6111 69,60.5C 67.5074,47.4846 72.3407,37.8179 83.5,31.5 Z"/></g>
<g><path style="opacity:1" fill="#2d448d" d="M 102.5,79.5 C 101.5,79.5 100.5,79.5 99.5,79.5C 99.9175,78.7784 100.584,78.2784 101.5,78C 99.7732,75.0964 99.1065,71.9297 99.5,68.5C 100.391,67.8902 101.391,67.5569 102.5,67.5C 109.719,66.4356 114.719,62.6023 117.5,56C 114.711,49.3872 109.711,45.5539 102.5,44.5C 98.7316,43.2134 95.0649,43.2134 91.5,44.5C 90.8333,44.5 90.1667,44.5 89.5,44.5C 87.1289,42.0034 86.1289,39.0034 86.5,35.5C 86.5,35.1667 86.5,34.8333 86.5,34.5C 98.552,30.0545 108.719,32.7211 117,42.5C 124.804,59.9356 119.971,72.269 102.5,79.5 Z"/></g>
<g><path style="opacity:0.933" fill="#fddd4b" d="M 10.5,32.5 C 11.8333,55.1667 11.8333,77.8333 10.5,100.5C -2.82825,77.7839 -2.82825,55.1172 10.5,32.5 Z"/></g>
<g><path style="opacity:1" fill="#21327d" d="M 86.5,35.5 C 86.1289,39.0034 87.1289,42.0034 89.5,44.5C 83.8619,46.7848 79.8619,50.6182 77.5,56C 80.4762,62.9982 85.8095,66.8316 93.5,67.5C 95.2646,68.4614 97.2646,68.7947 99.5,68.5C 99.1065,71.9297 99.7732,75.0964 101.5,78C 100.584,78.2784 99.9175,78.7784 99.5,79.5C 86.3516,79.5303 77.8516,73.1969 74,60.5C 72.3956,49.0814 76.5622,40.748 86.5,35.5 Z"/></g>
<g><path style="opacity:1" fill="#b4c3f0" d="M 89.5,44.5 C 90.1667,44.5 90.8333,44.5 91.5,44.5C 91.9382,44.4346 92.2716,44.6012 92.5,45C 88.5509,47.3994 86.5509,50.8994 86.5,55.5C 86.3851,61.0264 88.7184,65.0264 93.5,67.5C 85.8095,66.8316 80.4762,62.9982 77.5,56C 79.8619,50.6182 83.8619,46.7848 89.5,44.5 Z"/></g>
<g><path style="opacity:1" fill="#d6e7fb" d="M 102.5,44.5 C 109.711,45.5539 114.711,49.3872 117.5,56C 114.719,62.6023 109.719,66.4356 102.5,67.5C 110.443,59.7087 110.443,52.042 102.5,44.5 Z"/></g>
<g><path style="opacity:1" fill="#6fbff8" d="M 40.5,46.5 C 43.368,46.085 45.5347,47.085 47,49.5C 47.4996,56.1583 47.6663,62.825 47.5,69.5C 44.1667,69.5 40.8333,69.5 37.5,69.5C 37.3338,63.1579 37.5005,56.8246 38,50.5C 38.6622,49.0161 39.4955,47.6828 40.5,46.5 Z"/></g>
<g><path style="opacity:1" fill="#43abf1" d="M 91.5,44.5 C 95.0649,43.2134 98.7316,43.2134 102.5,44.5C 110.443,52.042 110.443,59.7087 102.5,67.5C 101.391,67.5569 100.391,67.8902 99.5,68.5C 97.2646,68.7947 95.2646,68.4614 93.5,67.5C 88.7184,65.0264 86.3851,61.0264 86.5,55.5C 86.5509,50.8994 88.5509,47.3994 92.5,45C 92.2716,44.6012 91.9382,44.4346 91.5,44.5 Z"/></g>
<g><path style="opacity:1" fill="#2fa5ea" d="M 35.5,69.5 C 32.1667,69.5 28.8333,69.5 25.5,69.5C 25.3359,66.8127 25.5026,64.146 26,61.5C 27.3129,60.4272 28.8129,59.7605 30.5,59.5C 35.0227,61.2216 36.6894,64.5549 35.5,69.5 Z"/></g>
<g><path style="opacity:1" fill="#97d4f9" d="M 41.5,73.5 C 35.1579,73.6662 28.8246,73.4995 22.5,73C 21.306,70.3422 22.306,69.1756 25.5,69.5C 28.8333,69.5 32.1667,69.5 35.5,69.5C 36.1667,69.5 36.8333,69.5 37.5,69.5C 40.8333,69.5 44.1667,69.5 47.5,69.5C 48.5,69.5 49.5,69.5 50.5,69.5C 50.3335,59.4944 50.5002,49.4944 51,39.5C 54.4719,36.582 57.4719,36.9154 60,40.5C 60.1679,50.1838 60.6679,59.8505 61.5,69.5C 63.4879,70.2888 63.8213,71.4555 62.5,73C 55.5079,73.4996 48.5079,73.6663 41.5,73.5 Z"/></g>
<g><path style="opacity:0.925" fill="#fedc43" d="M 123.5,68.5 C 123.492,80.8202 119.826,91.8202 112.5,101.5C 112.5,94.5 112.5,87.5 112.5,80.5C 116.876,77.1256 120.542,73.1256 123.5,68.5 Z"/></g>
<g><path style="opacity:0.982" fill="#dfecf7" d="M 112.5,80.5 C 112.5,87.5 112.5,94.5 112.5,101.5C 110.212,105.456 107.212,108.789 103.5,111.5C 103.666,105.491 103.499,99.4908 103,93.5C 102.487,92.4734 101.987,91.4734 101.5,90.5C 100.99,87.6122 101.656,85.2789 103.5,83.5C 106.598,82.7837 109.598,81.7837 112.5,80.5 Z"/></g>
<g><path style="opacity:1" fill="#57b4f7" d="M 40.5,82.5 C 42.2517,82.4176 43.2517,83.2509 43.5,85C 43.1639,86.0299 42.4972,86.5299 41.5,86.5C 36.8333,86.5 32.1667,86.5 27.5,86.5C 27.5,85.1667 27.5,83.8333 27.5,82.5C 31.8333,82.5 36.1667,82.5 40.5,82.5 Z"/></g>
<g><path style="opacity:1" fill="#fd5263" d="M 101.5,90.5 C 101.987,91.4734 102.487,92.4734 103,93.5C 103.499,99.4908 103.666,105.491 103.5,111.5C 101.051,114.556 98.0515,116.889 94.5,118.5C 93.6851,117.571 92.8518,116.571 92,115.5C 91.3333,107.833 91.3333,100.167 92,92.5C 92.7172,91.9558 93.2172,91.2891 93.5,90.5C 96.1667,89.1667 98.8333,89.1667 101.5,90.5 Z"/></g>
</svg>
