<?xml version="1.0" encoding="UTF-8"?>
<!DOCTYPE svg PUBLIC "-//W3C//DTD SVG 1.1//EN" "http://www.w3.org/Graphics/SVG/1.1/DTD/svg11.dtd">
<svg xmlns="http://www.w3.org/2000/svg" version="1.1" width="128px" height="128px" style="shape-rendering:geometricPrecision; text-rendering:geometricPrecision; image-rendering:optimizeQuality; fill-rule:evenodd; clip-rule:evenodd" xmlns:xlink="http://www.w3.org/1999/xlink">
<g><path style="opacity:0.855" fill="#347bfa" d="M 35.5,25.5 C 34.1266,25.6567 32.7932,25.49 31.5,25C 29,21.8333 26.5,18.6667 24,15.5C 23.5065,13.8659 23.3398,12.1992 23.5,10.5C 24.8734,10.3433 26.2068,10.51 27.5,11C 30,14.1667 32.5,17.3333 35,20.5C 35.4935,22.1341 35.6602,23.8008 35.5,25.5 Z"/></g>
<g><path style="opacity:0.861" fill="#347afa" d="M 1.5,15.5 C 3.19919,15.3398 4.86586,15.5065 6.5,16C 12.6697,19.9192 19.0031,23.5859 25.5,27C 26.3802,28.3561 26.7135,29.8561 26.5,31.5C 24.8008,31.6602 23.1341,31.4935 21.5,31C 15.3303,27.0808 8.99693,23.4141 2.5,20C 1.61983,18.6439 1.28649,17.1439 1.5,15.5 Z"/></g>
<g><path style="opacity:0.994" fill="#c9dbef" d="M 100.5,16.5 C 102.272,24.3711 102.938,32.3711 102.5,40.5C 109.535,40.3257 116.535,40.6591 123.5,41.5C 123.5,54.1667 123.5,66.8333 123.5,79.5C 122.001,85.4692 120.168,91.4692 118,97.5C 116.877,100.249 115.377,102.749 113.5,105C 106.626,106.975 99.6262,108.308 92.5,109C 77.1889,110.177 61.8555,110.677 46.5,110.5C 50.7652,98.5742 52.7652,86.2409 52.5,73.5C 56.1909,73.2147 59.6909,72.2147 63,70.5C 66.2485,71.2699 69.4152,72.2699 72.5,73.5C 74.2664,73.5658 75.2664,72.7324 75.5,71C 74.3991,67.864 73.3991,64.6973 72.5,61.5C 79.0842,45.2495 74.7508,32.9162 59.5,24.5C 58.8933,24.6236 58.56,24.9569 58.5,25.5C 56.2719,25.2231 54.6053,24.2231 53.5,22.5C 53.5,20.5 53.5,18.5 53.5,16.5C 69.1667,16.5 84.8333,16.5 100.5,16.5 Z"/></g>
<g><path style="opacity:0.972" fill="#367cfa" d="M 100.5,16.5 C 109.866,23.2024 117.533,31.5357 123.5,41.5C 116.535,40.6591 109.535,40.3257 102.5,40.5C 102.938,32.3711 102.272,24.3711 100.5,16.5 Z"/></g>
<g><path style="opacity:0.987" fill="#e7f1fb" d="M 53.5,22.5 C 54.6053,24.2231 56.2719,25.2231 58.5,25.5C 72.1481,33.4467 75.8148,44.78 69.5,59.5C 70.7103,63.1277 71.7103,66.7944 72.5,70.5C 68.396,70.4656 64.396,69.7989 60.5,68.5C 57.6402,68.555 55.3069,69.555 53.5,71.5C 31.7401,71.58 22.2401,60.9133 25,39.5C 26.8283,33.5147 30.3283,28.848 35.5,25.5C 41.2256,23.0586 47.2256,22.0586 53.5,22.5 Z"/></g>
<g><path style="opacity:1" fill="#4683fa" d="M 46.5,30.5 C 52.478,30.3114 55.8113,33.1447 56.5,39C 54.3209,44.5065 52.1543,50.0065 50,55.5C 48.9887,56.3366 47.8221,56.67 46.5,56.5C 46.6289,50.9027 48.4622,45.9027 52,41.5C 53.261,35.9202 51.0943,34.0868 45.5,36C 44.7734,37.3988 44.2734,38.8988 44,40.5C 42.9887,41.3366 41.8221,41.67 40.5,41.5C 39.9331,36.4074 41.9331,32.7408 46.5,30.5 Z"/></g>
<g><path style="opacity:0.948" fill="#337afa" d="M 3.5,37.5 C 9.5,37.5 15.5,37.5 21.5,37.5C 21.5,38.8333 21.5,40.1667 21.5,41.5C 15.5,41.5 9.5,41.5 3.5,41.5C 3.5,40.1667 3.5,38.8333 3.5,37.5 Z"/></g>
<g><path style="opacity:1" fill="#a8bfdd" d="M 58.5,25.5 C 58.56,24.9569 58.8933,24.6236 59.5,24.5C 74.7508,32.9162 79.0842,45.2495 72.5,61.5C 73.3991,64.6973 74.3991,67.864 75.5,71C 75.2664,72.7324 74.2664,73.5658 72.5,73.5C 69.4152,72.2699 66.2485,71.2699 63,70.5C 59.6909,72.2147 56.1909,73.2147 52.5,73.5C 52.8333,72.8333 53.1667,72.1667 53.5,71.5C 55.3069,69.555 57.6402,68.555 60.5,68.5C 64.396,69.7989 68.396,70.4656 72.5,70.5C 71.7103,66.7944 70.7103,63.1277 69.5,59.5C 75.8148,44.78 72.1481,33.4467 58.5,25.5 Z"/></g>
<g><path style="opacity:1" fill="#4081fa" d="M 45.5,59.5 C 46.8734,59.3433 48.2068,59.51 49.5,60C 50.6745,62.8288 49.6745,63.8288 46.5,63C 45.6634,61.9887 45.33,60.8221 45.5,59.5 Z"/></g>
<g><path style="opacity:1" fill="#a8bedd" d="M 123.5,79.5 C 123.723,91.3845 121.39,102.718 116.5,113.5C 93.1762,114.5 69.8429,114.833 46.5,114.5C 46.5,113.167 46.5,111.833 46.5,110.5C 61.8555,110.677 77.1889,110.177 92.5,109C 99.6262,108.308 106.626,106.975 113.5,105C 115.377,102.749 116.877,100.249 118,97.5C 120.168,91.4692 122.001,85.4692 123.5,79.5 Z"/></g>
</svg>
