<?xml version="1.0" encoding="UTF-8"?>
<!DOCTYPE svg PUBLIC "-//W3C//DTD SVG 1.1//EN" "http://www.w3.org/Graphics/SVG/1.1/DTD/svg11.dtd">
<svg xmlns="http://www.w3.org/2000/svg" version="1.1" width="128px" height="128px" style="shape-rendering:geometricPrecision; text-rendering:geometricPrecision; image-rendering:optimizeQuality; fill-rule:evenodd; clip-rule:evenodd" xmlns:xlink="http://www.w3.org/1999/xlink">
<g><path style="opacity:0.978" fill="#c80b4f" d="M 65.5,58.5 C 65.5,61.5 65.5,64.5 65.5,67.5C 65.5,75.5 65.5,83.5 65.5,91.5C 63.0274,91.9118 61.6941,90.9118 61.5,88.5C 61.5,86.8333 61.5,85.1667 61.5,83.5C 61.5,80.5 61.5,77.5 61.5,74.5C 61.5,55.5 61.5,36.5 61.5,17.5C 59.5,17.5 57.5,17.5 55.5,17.5C 56.2608,12.7298 58.9275,9.39644 63.5,7.5C 68.0725,9.39644 70.7392,12.7298 71.5,17.5C 69.5,17.5 67.5,17.5 65.5,17.5C 65.5,31.1667 65.5,44.8333 65.5,58.5 Z"/></g>
<g><path style="opacity:0.996" fill="#f9b300" d="M 101.5,47.5 C 100.167,47.5 98.8333,47.5 97.5,47.5C 91.5746,47.8082 85.7412,47.4749 80,46.5C 79.3333,36.5 79.3333,26.5 80,16.5C 85.4162,15.3611 90.9162,15.1944 96.5,16C 97.5,17 98.5,18 99.5,19C 106.081,19.1871 112.581,19.6871 119,20.5C 119.667,29.1667 119.667,37.8333 119,46.5C 113.259,47.4749 107.425,47.8082 101.5,47.5 Z"/></g>
<g><path style="opacity:1" fill="#bf7900" d="M 101.5,25.5 C 104.187,25.3359 106.854,25.5026 109.5,26C 110.308,26.3076 110.975,26.8076 111.5,27.5C 111.982,30.5202 112.315,33.5202 112.5,36.5C 112.363,38.1073 111.696,39.4406 110.5,40.5C 107.301,41.7994 104.135,41.7994 101,40.5C 100.383,39.5509 100.549,38.7175 101.5,38C 103.9,37.8142 106.234,37.3142 108.5,36.5C 103.167,34.5 103.167,32.5 108.5,30.5C 106.234,29.6858 103.9,29.1858 101.5,29C 100.316,27.8545 100.316,26.6879 101.5,25.5 Z"/></g>
<g><path style="opacity:1" fill="#c07a00" d="M 87.5,25.5 C 88.4959,25.4142 89.3292,25.7476 90,26.5C 90.7393,28.2205 91.5726,29.8872 92.5,31.5C 93.4063,29.6136 94.4063,27.7803 95.5,26C 97.2373,25.3877 98.2373,26.0543 98.5,28C 96.9607,32.8152 94.9607,37.3152 92.5,41.5C 90.0393,37.3152 88.0393,32.8152 86.5,28C 86.7432,27.0979 87.0766,26.2646 87.5,25.5 Z"/></g>
<g><path style="opacity:0.995" fill="#f9b300" d="M 29.5,63.5 C 28.1667,63.5 26.8333,63.5 25.5,63.5C 19.5746,63.8082 13.7412,63.4749 8,62.5C 7.33333,52.5 7.33333,42.5 8,32.5C 13.4162,31.3611 18.9162,31.1944 24.5,32C 25.5,33 26.5,34 27.5,35C 34.0809,35.1871 40.5809,35.6871 47,36.5C 47.6667,45.1667 47.6667,53.8333 47,62.5C 41.2588,63.4749 35.4254,63.8082 29.5,63.5 Z"/></g>
<g><path style="opacity:1" fill="#bf7900" d="M 29.5,41.5 C 32.1873,41.3359 34.854,41.5026 37.5,42C 40.0799,43.4814 40.9132,45.648 40,48.5C 37.88,50.6522 35.38,52.1522 32.5,53C 34.8333,53.3333 37.1667,53.6667 39.5,54C 40.8333,55 40.8333,56 39.5,57C 35.9085,57.7886 32.4085,57.6219 29,56.5C 28.5213,51.1224 31.0213,47.7891 36.5,46.5C 34.2338,45.6858 31.9005,45.1858 29.5,45C 28.3157,43.8545 28.3157,42.6879 29.5,41.5 Z"/></g>
<g><path style="opacity:1" fill="#c07a00" d="M 15.5,41.5 C 16.4959,41.4142 17.3292,41.7476 18,42.5C 18.7393,44.2205 19.5726,45.8872 20.5,47.5C 21.4063,45.6136 22.4063,43.7803 23.5,42C 25.2373,41.3877 26.2373,42.0543 26.5,44C 24.9607,48.8152 22.9607,53.3152 20.5,57.5C 18.0393,53.3152 16.0393,48.8152 14.5,44C 14.7432,43.0979 15.0766,42.2646 15.5,41.5 Z"/></g>
<g><path style="opacity:0.941" fill="#009ec7" d="M 97.5,47.5 C 98.8333,47.5 100.167,47.5 101.5,47.5C 102.725,53.2103 101.059,57.7103 96.5,61C 88.1667,61.3333 79.8333,61.6667 71.5,62C 68.3212,62.6831 66.3212,64.5164 65.5,67.5C 65.5,64.5 65.5,61.5 65.5,58.5C 75.1631,57.9455 84.8298,57.1122 94.5,56C 96.5848,53.5806 97.5848,50.7472 97.5,47.5 Z"/></g>
<g><path style="opacity:0.919" fill="#094f76" d="M 25.5,63.5 C 26.8333,63.5 28.1667,63.5 29.5,63.5C 29.4152,66.7472 30.4152,69.5806 32.5,72C 42.1702,73.1122 51.8369,73.9455 61.5,74.5C 61.5,77.5 61.5,80.5 61.5,83.5C 60.6788,80.5164 58.6788,78.6831 55.5,78C 47.1667,77.6667 38.8333,77.3333 30.5,77C 25.9413,73.7103 24.2746,69.2103 25.5,63.5 Z"/></g>
<g><path style="opacity:0.996" fill="#f9b300" d="M 61.5,88.5 C 61.6941,90.9118 63.0274,91.9118 65.5,91.5C 71.4254,91.1918 77.2588,91.5251 83,92.5C 83.6667,101.167 83.6667,109.833 83,118.5C 70.2421,119.655 57.4088,119.822 44.5,119C 43.348,108.91 43.1814,98.7438 44,88.5C 49.833,87.1875 55.6663,87.1875 61.5,88.5 Z"/></g>
<g><path style="opacity:1" fill="#c07a00" d="M 54.5,97.5 C 55.4959,97.4142 56.3292,97.7476 57,98.5C 57.7393,100.221 58.5726,101.887 59.5,103.5C 60.4063,101.614 61.4063,99.7803 62.5,98C 64.2373,97.3877 65.2373,98.0543 65.5,100C 63.9607,104.815 61.9607,109.315 59.5,113.5C 57.0393,109.315 55.0393,104.815 53.5,100C 53.7432,99.0979 54.0766,98.2646 54.5,97.5 Z"/></g>
<g><path style="opacity:1" fill="#be7800" d="M 70.5,97.5 C 71.4959,97.4142 72.3292,97.7476 73,98.5C 73.6667,103.167 73.6667,107.833 73,112.5C 72,113.833 71,113.833 70,112.5C 69.9973,108.564 69.164,104.897 67.5,101.5C 68.5244,100.148 69.5244,98.8149 70.5,97.5 Z"/></g>
</svg>
