<?xml version="1.0" encoding="UTF-8"?>
<!DOCTYPE svg PUBLIC "-//W3C//DTD SVG 1.1//EN" "http://www.w3.org/Graphics/SVG/1.1/DTD/svg11.dtd">
<svg xmlns="http://www.w3.org/2000/svg" version="1.1" width="128px" height="128px" style="shape-rendering:geometricPrecision; text-rendering:geometricPrecision; image-rendering:optimizeQuality; fill-rule:evenodd; clip-rule:evenodd" xmlns:xlink="http://www.w3.org/1999/xlink">
<g><path style="opacity:1" fill="#a0fbfe" d="M 44.5,3.5 C 45.8333,4.83333 45.8333,6.16667 44.5,7.5C 33.8164,8.18359 28.1497,13.8503 27.5,24.5C 26.1667,25.8333 24.8333,25.8333 23.5,24.5C 23.5,10.5 30.5,3.5 44.5,3.5 Z"/></g>
<g><path style="opacity:0.911" fill="#5ed7fe" d="M 44.5,3.5 C 53.3392,4.00493 59.5058,8.33826 63,16.5C 66.0326,30.4554 60.8659,39.4554 47.5,43.5C 44.8333,43.5 42.1667,43.5 39.5,43.5C 29.2443,41.3265 23.911,34.9932 23.5,24.5C 24.8333,25.8333 26.1667,25.8333 27.5,24.5C 31.4177,38.8662 40.0843,42.6996 53.5,36C 61.4226,27.5931 61.4226,19.2597 53.5,11C 50.6907,9.25889 47.6907,8.09223 44.5,7.5C 45.8333,6.16667 45.8333,4.83333 44.5,3.5 Z"/></g>
<g><path style="opacity:1" fill="#d2e4f0" d="M 44.5,7.5 C 47.6907,8.09223 50.6907,9.25889 53.5,11C 61.4226,19.2597 61.4226,27.5931 53.5,36C 40.0843,42.6996 31.4177,38.8662 27.5,24.5C 28.1497,13.8503 33.8164,8.18359 44.5,7.5 Z"/></g>
<g><path style="opacity:1" fill="#2cace6" d="M 46.5,15.5 C 50.0134,14.8757 52.8467,15.8757 55,18.5C 54.7788,21.2311 54.9455,23.8978 55.5,26.5C 54.1823,31.0782 51.1823,32.5782 46.5,31C 46.0426,30.586 45.7093,30.086 45.5,29.5C 47.1493,28.0118 49.1493,27.0118 51.5,26.5C 46.1667,24.5 46.1667,22.5 51.5,20.5C 49.9223,19.7022 48.2556,19.2022 46.5,19C 45.3157,17.8545 45.3157,16.6879 46.5,15.5 Z"/></g>
<g><path style="opacity:1" fill="#28abe6" d="M 32.5,15.5 C 33.4959,15.4142 34.3292,15.7476 35,16.5C 35.3333,19.5 35.6667,22.5 36,25.5C 37,26.8333 38,26.8333 39,25.5C 39.3333,22.5 39.6667,19.5 40,16.5C 41,15.1667 42,15.1667 43,16.5C 45.0352,23.0448 43.2019,28.0448 37.5,31.5C 31.5622,27.5969 29.8956,22.2635 32.5,15.5 Z"/></g>
<g><path style="opacity:0.921" fill="#61aa49" d="M 92.5,19.5 C 101.339,20.0049 107.506,24.3383 111,32.5C 114.033,46.4554 108.866,55.4554 95.5,59.5C 92.5,59.5 89.5,59.5 86.5,59.5C 76.9606,56.7561 71.9606,50.4227 71.5,40.5C 72.8333,41.8333 74.1667,41.8333 75.5,40.5C 78.9603,54.2302 87.2936,58.3969 100.5,53C 109.677,43.9487 109.677,34.9487 100.5,26C 97.978,24.6591 95.3113,23.8257 92.5,23.5C 93.8333,22.1667 93.8333,20.8333 92.5,19.5 Z"/></g>
<g><path style="opacity:1" fill="#8dc53f" d="M 92.5,19.5 C 93.8333,20.8333 93.8333,22.1667 92.5,23.5C 81.8333,24.1667 76.1667,29.8333 75.5,40.5C 74.1667,41.8333 72.8333,41.8333 71.5,40.5C 71.5,26.5 78.5,19.5 92.5,19.5 Z"/></g>
<g><path style="opacity:1" fill="#d3e4e8" d="M 92.5,23.5 C 95.3113,23.8257 97.978,24.6591 100.5,26C 109.677,34.9487 109.677,43.9487 100.5,53C 87.2936,58.3969 78.9603,54.2302 75.5,40.5C 76.1667,29.8333 81.8333,24.1667 92.5,23.5 Z"/></g>
<g><path style="opacity:1" fill="#93c942" d="M 94.5,31.5 C 101.365,30.3624 104.031,33.029 102.5,39.5C 100.954,40.684 99.2873,41.684 97.5,42.5C 99.0777,43.2978 100.744,43.7978 102.5,44C 103.833,45 103.833,46 102.5,47C 94.6726,49.5807 92.006,47.0807 94.5,39.5C 96.0461,38.316 97.7127,37.316 99.5,36.5C 97.9223,35.7022 96.2556,35.2022 94.5,35C 93.3157,33.8545 93.3157,32.6879 94.5,31.5 Z"/></g>
<g><path style="opacity:1" fill="#92c840" d="M 80.5,31.5 C 81.4959,31.4142 82.3292,31.7476 83,32.5C 83.3333,35.5 83.6667,38.5 84,41.5C 85,42.8333 86,42.8333 87,41.5C 87.3333,38.5 87.6667,35.5 88,32.5C 89,31.1667 90,31.1667 91,32.5C 93.0352,39.0448 91.2019,44.0448 85.5,47.5C 79.5622,43.5969 77.8956,38.2635 80.5,31.5 Z"/></g>
<g><path style="opacity:0.975" fill="#555a6e" d="M 39.5,43.5 C 42.1667,43.5 44.8333,43.5 47.5,43.5C 47.1688,51.8599 47.5021,60.1932 48.5,68.5C 58.7867,67.69 69.12,67.19 79.5,67C 84.1069,66.5614 86.4402,64.0614 86.5,59.5C 89.5,59.5 92.5,59.5 95.5,59.5C 95.8231,67.0193 92.4898,72.186 85.5,75C 75.5,75.3333 65.5,75.6667 55.5,76C 50.8931,76.4386 48.5598,78.9386 48.5,83.5C 47.1667,83.5 45.8333,83.5 44.5,83.5C 42.8333,83.5 41.1667,83.5 39.5,83.5C 39.5,70.1667 39.5,56.8333 39.5,43.5 Z"/></g>
<g><path style="opacity:1" fill="#995ea8" d="M 39.5,83.5 C 41.1667,83.5 42.8333,83.5 44.5,83.5C 45.8333,84.8333 45.8333,86.1667 44.5,87.5C 33.8333,88.1667 28.1667,93.8333 27.5,104.5C 26.1667,105.833 24.8333,105.833 23.5,104.5C 23.2993,93.2181 28.6326,86.2181 39.5,83.5 Z"/></g>
<g><path style="opacity:0.955" fill="#814d8f" d="M 44.5,83.5 C 45.8333,83.5 47.1667,83.5 48.5,83.5C 61.1394,88.1029 65.9728,97.1029 63,110.5C 57.6574,121.752 48.8241,125.919 36.5,123C 28.3383,119.506 24.0049,113.339 23.5,104.5C 24.8333,105.833 26.1667,105.833 27.5,104.5C 30.9714,118.236 39.3048,122.402 52.5,117C 61.6773,107.949 61.6773,98.9487 52.5,90C 49.978,88.6591 47.3113,87.8257 44.5,87.5C 45.8333,86.1667 45.8333,84.8333 44.5,83.5 Z"/></g>
<g><path style="opacity:1" fill="#d4e0ec" d="M 44.5,87.5 C 47.3113,87.8257 49.978,88.6591 52.5,90C 61.6773,98.9487 61.6773,107.949 52.5,117C 39.3048,122.402 30.9714,118.236 27.5,104.5C 28.1667,93.8333 33.8333,88.1667 44.5,87.5 Z"/></g>
<g><path style="opacity:1" fill="#9c61ab" d="M 34.5,95.5 C 35.4959,95.4142 36.3292,95.7476 37,96.5C 37.3333,99.5 37.6667,102.5 38,105.5C 39,106.833 40,106.833 41,105.5C 41.3333,102.5 41.6667,99.5 42,96.5C 43,95.1667 44,95.1667 45,96.5C 47.0352,103.045 45.2019,108.045 39.5,111.5C 33.5622,107.597 31.8956,102.264 34.5,95.5 Z"/></g>
<g><path style="opacity:1" fill="#9b61ab" d="M 50.5,95.5 C 51.4959,95.4142 52.3292,95.7476 53,96.5C 53.6667,101.167 53.6667,105.833 53,110.5C 52,111.833 51,111.833 50,110.5C 49.9973,106.564 49.164,102.897 47.5,99.5C 48.5244,98.1482 49.5244,96.8149 50.5,95.5 Z"/></g>
</svg>
